REM DIRINDEX 1\2,1\3,1\4,1\5,1\6
REM DIRNAME cjc030,folder01,folder02,folder03,folder04,folder05
TITLE ""
FILE "Disc3Track13.mp3" MP3
  TRACK 01 AUDIO
    TITLE "3:cjc030_04418"
    INDEX 01 00:00:00
  TRACK 02 AUDIO
    TITLE "0:"
    INDEX 01 00:00:74
  TRACK 03 AUDIO
    TITLE "4:cjc030_04419"
    INDEX 01 00:01:07
  TRACK 04 AUDIO
    TITLE "0:"
    INDEX 01 00:03:25
  TRACK 05 AUDIO
    TITLE "5:cjc030_04420"
    INDEX 01 00:03:35
  TRACK 06 AUDIO
    TITLE "0:"
    INDEX 01 00:04:40
  TRACK 07 AUDIO
    TITLE "6:cjc030_04421"
    INDEX 01 00:04:54
  TRACK 08 AUDIO
    TITLE "0:"
    INDEX 01 00:08:62
  TRACK 09 AUDIO
    TITLE "3:cjc030_04422"
    INDEX 01 00:09:36
  TRACK 10 AUDIO
    TITLE "0:"
    INDEX 01 00:10:43
  TRACK 11 AUDIO
    TITLE "4:cjc030_04423"
    INDEX 01 00:10:53
  TRACK 12 AUDIO
    TITLE "0:"
    INDEX 01 00:12:24
  TRACK 13 AUDIO
    TITLE "5:cjc030_04424"
    INDEX 01 00:12:32
  TRACK 14 AUDIO
    TITLE "0:"
    INDEX 01 00:13:41
  TRACK 15 AUDIO
    TITLE "3:cjc030_04425"
    INDEX 01 00:14:19
  TRACK 16 AUDIO
    TITLE "0:"
    INDEX 01 00:15:32
  TRACK 17 AUDIO
    TITLE "4:cjc030_04426"
    INDEX 01 00:15:42
  TRACK 18 AUDIO
    TITLE "0:"
    INDEX 01 00:16:49
  TRACK 19 AUDIO
    TITLE "5:cjc030_04427"
    INDEX 01 00:16:59
  TRACK 20 AUDIO
    TITLE "0:"
    INDEX 01 00:17:72
  TRACK 21 AUDIO
    TITLE "3:cjc030_04428"
    INDEX 01 00:18:50
  TRACK 22 AUDIO
    TITLE "0:"
    INDEX 01 00:19:56
  TRACK 23 AUDIO
    TITLE "4:cjc030_04429"
    INDEX 01 00:19:65
  TRACK 24 AUDIO
    TITLE "0:"
    INDEX 01 00:21:58
  TRACK 25 AUDIO
    TITLE "5:cjc030_04430"
    INDEX 01 00:21:68
  TRACK 26 AUDIO
    TITLE "0:"
    INDEX 01 00:22:70
  TRACK 27 AUDIO
    TITLE "6:cjc030_04431"
    INDEX 01 00:23:10
  TRACK 28 AUDIO
    TITLE "0:"
    INDEX 01 00:27:55
  TRACK 29 AUDIO
    TITLE "3:cjc030_04432"
    INDEX 01 00:28:29
  TRACK 30 AUDIO
    TITLE "0:"
    INDEX 01 00:29:46
  TRACK 31 AUDIO
    TITLE "4:cjc030_04433"
    INDEX 01 00:29:56
  TRACK 32 AUDIO
    TITLE "0:"
    INDEX 01 00:30:32
  TRACK 33 AUDIO
    TITLE "5:cjc030_04434"
    INDEX 01 00:30:38
  TRACK 34 AUDIO
    TITLE "0:"
    INDEX 01 00:31:55
  TRACK 35 AUDIO
    TITLE "3:cjc030_04435"
    INDEX 01 00:32:35
  TRACK 36 AUDIO
    TITLE "0:"
    INDEX 01 00:33:52
  TRACK 37 AUDIO
    TITLE "4:cjc030_04436"
    INDEX 01 00:33:58
  TRACK 38 AUDIO
    TITLE "0:"
    INDEX 01 00:35:51
  TRACK 39 AUDIO
    TITLE "5:cjc030_04437"
    INDEX 01 00:35:59
  TRACK 40 AUDIO
    TITLE "0:"
    INDEX 01 00:36:74
  TRACK 41 AUDIO
    TITLE "3:cjc030_04438"
    INDEX 01 00:37:54
  TRACK 42 AUDIO
    TITLE "0:"
    INDEX 01 00:38:63
  TRACK 43 AUDIO
    TITLE "4:cjc030_04439"
    INDEX 01 00:38:71
  TRACK 44 AUDIO
    TITLE "0:"
    INDEX 01 00:41:26
  TRACK 45 AUDIO
    TITLE "5:cjc030_04440"
    INDEX 01 00:41:34
  TRACK 46 AUDIO
    TITLE "0:"
    INDEX 01 00:42:43
  TRACK 47 AUDIO
    TITLE "6:cjc030_04441"
    INDEX 01 00:42:59
  TRACK 48 AUDIO
    TITLE "0:"
    INDEX 01 00:47:70
  TRACK 49 AUDIO
    TITLE "3:cjc030_04442"
    INDEX 01 00:48:44
  TRACK 50 AUDIO
    TITLE "0:"
    INDEX 01 00:49:57
  TRACK 51 AUDIO
    TITLE "4:cjc030_04443"
    INDEX 01 00:49:65
  TRACK 52 AUDIO
    TITLE "0:"
    INDEX 01 00:51:46
  TRACK 53 AUDIO
    TITLE "5:cjc030_04444"
    INDEX 01 00:51:52
  TRACK 54 AUDIO
    TITLE "0:"
    INDEX 01 00:52:65
  TRACK 55 AUDIO
    TITLE "3:cjc030_04445"
    INDEX 01 00:53:43
  TRACK 56 AUDIO
    TITLE "0:"
    INDEX 01 00:54:54
  TRACK 57 AUDIO
    TITLE "4:cjc030_04446"
    INDEX 01 00:54:62
  TRACK 58 AUDIO
    TITLE "0:"
    INDEX 01 00:55:63
  TRACK 59 AUDIO
    TITLE "5:cjc030_04447"
    INDEX 01 00:55:71
  TRACK 60 AUDIO
    TITLE "0:"
    INDEX 01 00:57:07
  TRACK 61 AUDIO
    TITLE "3:cjc030_04448"
    INDEX 01 00:57:60
  TRACK 62 AUDIO
    TITLE "0:"
    INDEX 01 00:58:71
  TRACK 63 AUDIO
    TITLE "4:cjc030_04449"
    INDEX 01 00:59:06
  TRACK 64 AUDIO
    TITLE "0:"
    INDEX 01 01:00:23
  TRACK 65 AUDIO
    TITLE "5:cjc030_04450"
    INDEX 01 01:00:31
  TRACK 66 AUDIO
    TITLE "0:"
    INDEX 01 01:01:46
  TRACK 67 AUDIO
    TITLE "6:cjc030_04451"
    INDEX 01 01:01:56
  TRACK 68 AUDIO
    TITLE "0:"
    INDEX 01 01:05:73
  TRACK 69 AUDIO
    TITLE "3:cjc030_04452"
    INDEX 01 01:06:43
  TRACK 70 AUDIO
    TITLE "0:"
    INDEX 01 01:07:63
  TRACK 71 AUDIO
    TITLE "4:cjc030_04453"
    INDEX 01 01:07:72
  TRACK 72 AUDIO
    TITLE "0:"
    INDEX 01 01:08:74
  TRACK 73 AUDIO
    TITLE "5:cjc030_04454"
    INDEX 01 01:09:09
  TRACK 74 AUDIO
    TITLE "0:"
    INDEX 01 01:10:26
